# xmcd
#
# Track frame offsets:
#	150
#	12437
#	23627
#	34199
#	44348
#	54877
#	65780
#	76662
#	85459
#	95399
#
# Disc length: 1388 seconds
#
# Revision: 1
# Processed by: cddbd v1.5.2PL0 Copyright (c) Steve Scherf et al.
# Submitted via: audiograbber 1.83.01
#
DISCID=73056a0a
DTITLE=George Jones - If My Heart Had Windows
DYEAR=1968
DGENRE=Country
TTITLE0=If My Heart Had Windows
TTITLE1=Between My House And Town
TTITLE2=On Second Thought
TTITLE3=Possum Holler
TTITLE4=Unwanted Babies
TTITLE5=Say It's Not You
TTITLE6=Wrong Side Of The World
TTITLE7=The Stranger's Me
TTITLE8=Your Angel Steps Out Of Heaven
TTITLE9=The Poor Chinee
EXTD=
EXTT0=
EXTT1=
EXTT2=
EXTT3=
EXTT4=
EXTT5=
EXTT6=
EXTT7=
EXTT8=
EXTT9=
PLAYORDER=
